inDegrees=no
num_controls=7
num_derivatives=13
num_iterations=105
num_multipliers=7
num_parameters=0
num_slacks=7
num_states=26
objective=5.062508
objective_accelerations=0.407985
objective_balance=0.073849
objective_effort=0.384133
objective_height=4.134671
objective_ligament=0.061870
solver_duration=1178.799305
status=Solve_Succeeded
success=true
DataType=double
version=3
OpenSimVersion=4.4-2022-07-23-0e9fedc
endheader
time	/jointset/ground_pelvis/pelvis_tilt/value	/jointset/ground_pelvis/pelvis_tx/value	/jointset/ground_pelvis/pelvis_ty/value	/jointset/hip_l/hip_flexion_l/value	/jointset/hip_l/hip_adduction_l/value	/jointset/hip_l/hip_rotation_l/value	/jointset/back/lumbar_extension/value	/jointset/patellofemoral_l/patellar_flexion_l/value	/jointset/knee_l/knee_flexion_l/value	/jointset/knee_l/knee_adduction_l/value	/jointset/knee_l/knee_rotation_l/value	/jointset/ankle_l/ankle_angle_l/value	/jointset/subtalar_l/subtalar_angle_l/value	/jointset/ground_pelvis/pelvis_tilt/speed	/jointset/ground_pelvis/pelvis_tx/speed	/jointset/ground_pelvis/pelvis_ty/speed	/jointset/hip_l/hip_flexion_l/speed	/jointset/hip_l/hip_adduction_l/speed	/jointset/hip_l/hip_rotation_l/speed	/jointset/back/lumbar_extension/speed	/jointset/patellofemoral_l/patellar_flexion_l/speed	/jointset/knee_l/knee_flexion_l/speed	/jointset/knee_l/knee_adduction_l/speed	/jointset/knee_l/knee_rotation_l/speed	/jointset/ankle_l/ankle_angle_l/speed	/jointset/subtalar_l/subtalar_angle_l/speed	/forceset/tau_hip_flexion_l	/forceset/tau_hip_adduction_l	/forceset/tau_hip_rotation_l	/forceset/tau_knee_flexion_l	/forceset/tau_ankle_angle_l	/forceset/tau_subtalar_angle_l	/forceset/tau_lumbar_extension	lambda_cid13_p0	lambda_cid13_p1	lambda_cid13_p2	lambda_cid13_p3	lambda_cid13_p4	lambda_cid13_p5	lambda_cid14_p0	/jointset/ground_pelvis/pelvis_tilt/accel	/jointset/ground_pelvis/pelvis_tx/accel	/jointset/ground_pelvis/pelvis_ty/accel	/jointset/hip_l/hip_flexion_l/accel	/jointset/hip_l/hip_adduction_l/accel	/jointset/hip_l/hip_rotation_l/accel	/jointset/back/lumbar_extension/accel	/jointset/patellofemoral_l/patellar_flexion_l/accel	/jointset/knee_l/knee_flexion_l/accel	/jointset/knee_l/knee_adduction_l/accel	/jointset/knee_l/knee_rotation_l/accel	/jointset/ankle_l/ankle_angle_l/accel	/jointset/subtalar_l/subtalar_angle_l/accel	gamma_cid13_p0	gamma_cid13_p1	gamma_cid13_p2	gamma_cid13_p3	gamma_cid13_p4	gamma_cid13_p5	gamma_cid14_p0
0.5	-0.4151267467054166	-0.06094547083347076	0.7963414271272117	1.110038602685636	-0.306114944689877	-0.1013257546750449	-0.313584609895405	0.5334388070200614	0.5334388070201361	-0.1743584098890537	0.1744780460232925	-0.004994416305409351	-0.0520856317895465	-0.677024141791989	-0.2630327848446791	-0.3629588130531841	1.970361887621564	-0.0646471033513069	0.4707683470814511	-0.6301444118464072	1.369153953373035	1.369153953372994	-0.001399520037195951	0.0002177777510901102	0.1374855305821762	-0.05154403901256033	-0.2255765379306835	0.03097548438174027	-0.01880515368496678	-0.1771100399441052	0.1428892214090266	0.02955094894292007	0.2068059894247974	6.171522576934239	-17.49272239171684	6.473514602565519	-2.966726124381991	-612.5902085939636	-52.61072004710383	-36.15188551301622	0.4548033928158465	0.5453386220004312	-0.1926761574600883	-1.279062407211497	0.3960803600442286	-0.2217636583591878	1.502471913056804	-0.8120916920023084	-0.8120916920023463	0.02569956928107461	-0.02905584809725141	0.08982889682578528	0.4007898932764209	2.174291317570918e-08	-7.04639461481003e-07	6.381845535171009e-08	-1.118839090600357e-07	-9.279336517502975e-08	-6.538919910335405e-08	-8.588589112662853e-08
0.51	-0.4218729941873069	-0.06354823176716769	0.7927029141436757	1.129675117564934	-0.3067422592073122	-0.09663082298678161	-0.3198106940616323	0.5470879544365186	0.5470879544365943	-0.1743719108275172	0.1744801230171815	-0.003615532752427505	-0.05258172388855205	-0.6721406221194485	-0.2574947402435799	-0.3646732873590351	1.956685739182254	-0.06082162490342582	0.4681560810905728	-0.6150075742121661	1.360489915179124	1.360489915179164	-0.001303022733270564	0.0001986885753139252	0.138259493955466	-0.04768243030474159	-0.2328561378723583	0.03201830374441774	-0.01877556659041965	-0.1778385231296407	0.1425948573300221	0.03044679118412716	0.2124570200987597	5.913789698867013	-17.73102121126233	6.390841637669547	-2.97043603642766	-615.8747412252029	-52.33148827624782	-35.58069578540069	0.517833654536723	0.5617139767386917	-0.1502757708132585	-1.450196726255937	0.374996540441276	-0.2903350498571	1.529016765439823	-0.921385292421571	-0.9213852924092002	0.001152336799087566	0.01177468438796516	0.06642349065644465	0.3777405844435979	2.105589899734563e-08	-6.741953448833254e-07	5.529484707253477e-08	-1.111580294287911e-07	-8.245785669460888e-08	-5.764437352171519e-08	-8.273938359206701e-08
0.52	-0.4285678649924342	-0.06609487693533657	0.7890493678763473	1.149167209827077	-0.3073314759496181	-0.0919638893545008	-0.325883464436144	0.5606448963891927	0.5606448963892005	-0.1743845412877817	0.1744820311466435	-0.002229860879098742	-0.05303942105549701	-0.6667488064444728	-0.2518096317390678	-0.3659654698116619	1.941477364184346	-0.05702754832428928	0.4651687358834934	-0.5994816535047368	1.350712860611761	1.350712860611883	-0.001225424395294138	0.0001840048677619104	0.1388431946518017	-0.04386505260054952	-0.240135737813949	0.03306112310712506	-0.01874597949601258	-0.1785670063151666	0.1423004932510062	0.03134263342536257	0.2181080507728095	5.64745622637672	-17.9691989500255	6.309731090191122	-2.955452822937418	-619.289600459024	-52.0896643555659	-34.98639546139349	0.5564625933020971	0.5747514026837451	-0.1082177868150717	-1.585507718931115	0.3897999862953974	-0.2967795015993565	1.580288527694013	-1.034694966692962	-1.034694966692907	0.0219197760914149	-0.0281747544524547	0.05177636143597541	0.3919436925513812	1.776809137560398e-08	-6.385214236362746e-07	5.472116897309947e-08	-1.069099089574396e-07	-7.582289452633004e-08	-4.957254701583254e-08	-8.016826164765866e-08
0.53	-0.4352063646546719	-0.06858399789185657	0.7853850158323424	1.168499766060388	-0.3078829149596329	-0.08732859365469973	-0.3317991212950019	0.5740986095277618	0.5740986095276608	-0.1743964313831862	0.1744837319878263	-0.0008392886586045214	-0.0534591698217433	-0.6608707479048521	-0.2459954607324101	-0.3668333305416427	1.924790497381583	-0.05326946660036021	0.4618284580584885	-0.5835980120461169	1.339852291242355	1.339852291242356	-0.001154059638951237	0.0001592446072722794	0.1392396502042386	-0.04009604147958715	-0.2472309527633366	0.03396680363653016	-0.01875154866635732	-0.1793316785131076	0.1420904312432271	0.03213413622132304	0.2235764121614727	5.411385437612704	-18.16956251774344	6.225106852024421	-2.941220799915107	-622.5979961730587	-51.79855218008554	-34.37144900964957	0.6155307609576195	0.5875938407504122	-0.06534341605430641	-1.74678803096772	0.3675082022661951	-0.3620279538996993	1.600157886953464	-1.138343538262379	-1.138343538280511	-0.0005822377801093378	0.01078985634925573	0.02883635197030459	0.3677693042590542	1.463265143289443e-08	-6.017344193451429e-07	5.418994402009711e-08	-1.022822869414835e-07	-6.941673810129497e-08	-4.185156284679769e-08	-7.73195492738351e-08
0.54	-0.4417836730761581	-0.0710144083600892	0.7817141305410437	1.187658151251686	-0.3083970339650517	-0.08272857593931809	-0.337554390552869	0.58743839584942	0.5874383958491471	-0.1744076732436837	0.1744852685300328	0.0005542993573783134	-0.05384155058030128	-0.6545105582987178	-0.2400675340815908	-0.3672721192703904	1.906643155778065	-0.04956354740345192	0.4581131389955359	-0.5674041333072861	1.327927497225023	1.327927497224902	-0.00109577741002266	0.0001511450746363081	0.1394463537495973	-0.03639145106299595	-0.2543261677126957	0.03487248416599288	-0.0187571178369089	-0.1800963507110177	0.1418803692354583	0.0329256390173439	0.2290447735501515	5.16679769264249	-18.37004300708718	6.142338095086808	-2.910359040544007	-626.0366149741415	-51.54432793371083	-33.73838059560106	0.6528888066040311	0.5975025315167589	-0.02240338656828621	-1.877602679082236	0.3793674808913355	-0.3717877491888953	1.642335983735762	-1.247539896278351	-1.247539896278489	0.01930327060871492	-0.02484260888176644	0.01382596002129867	0.3790595516774554	1.166578849677361e-08	-5.637159189201343e-07	5.37056885057014e-08	-9.723479087617773e-08	-6.326372845601895e-08	-3.451874466746679e-08	-7.416371557385003e-08
0.55	-0.4482950791982976	-0.07338502907869911	0.7780410015993813	1.206627979499823	-0.3088743501173548	-0.07816744177564774	-0.3431462197029909	0.6006536972685145	0.6006536972685786	-0.1744183481174327	0.1744866817543522	0.0019490179744686	-0.0541872023874756	-0.6476964912905724	-0.2340426586595401	-0.3672815545896237	1.887092058800591	-0.04591207461632979	0.4540544271355726	-0.5509193967060215	1.314961954201089	1.314961954200969	-0.001041343338652134	0.0001337896990469315	0.1394657031918795	-0.03275343860561754	-0.261222991416384	0.03563228564872845	-0.01879181892262991	-0.1808810996285399	0.1417283857341644	0.03363153477343236	0.234320567064683	4.946208490676905	-18.53970551757606	6.05712250895179	-2.876926695350427	-629.3432245322705	-51.25447992107465	-33.08964955891918	0.7067877562734595	0.6070538001877922	0.02059158521327778	-2.028433105481305	0.3562450726530186	-0.4318794223007182	1.657887498870336	-1.346671876642252	-1.346671876641903	-0.001902844111333	0.01012035768722806	-0.008764500599183045	0.3540716361716568	8.946441453631143e-09	-5.255264533831805e-07	5.297954830183915e-08	-9.196356325373328e-08	-5.733904618949905e-08	-2.765811616300592e-08	-7.08042086429457e-08
0.5600000000000001	-0.4547361202286654	-0.07569498629255879	0.7743699393424884	1.225395382798535	-0.309315509962789	-0.07364868803413398	-0.3485719324869843	0.6137342211831529	0.6137342211834848	-0.1744285619143948	0.1744879818968233	0.003342979298595263	-0.05449689416139481	-0.6404375399483777	-0.2279348331315493	-0.3668587823164622	1.866158165887069	-0.04233228602799725	0.4496370545595793	-0.534180860082899	1.300971996329495	1.300971996329376	-0.001003562047768444	0.0001285287068437593	0.1392948951569365	-0.02919944441208322	-0.2681198151199599	0.03639208713152946	-0.01882652000858179	-0.1816658485460327	0.1415764022328715	0.03433743052958734	0.2395963605793197	4.717235869760791	-18.70968833542647	5.974000434542255	-2.82913193476277	-632.7791177037373	-51.00055178543138	-32.4277386925844	0.7418656734131437	0.6140925527054604	0.06403813191084459	-2.154161866291817	0.365030641133517	-0.4435198923949225	1.69309598810691	-1.452422865810526	-1.452422865810516	0.01597271451154082	-0.02242373220457072	-0.02420553542282912	0.3622558989089499	6.524113482062682e-09	-4.871318297118925e-07	5.196314647061706e-08	-8.642385776272242e-08	-5.168835677748646e-08	-2.136411526838907e-08	-6.720029383493824e-08
0.5700000000000001	-0.4611024061887782	-0.0779435006823746	0.7707052683650722	1.243946689645977	-0.3097211995083067	-0.06917578726292738	-0.3538290855210046	0.6266698086448916	0.6266698086451314	-0.1744383824106575	0.1744891749637857	0.004734313269802595	-0.0547714312074567	-0.6327462726535492	-0.221758393699497	-0.3660024665175165	1.843879514912912	-0.03881934899820211	0.4448833133778749	-0.5172216796989791	1.285982026807975	1.285982026807968	-0.0009589568499634835	0.0001134015239559989	0.1389421357479473	-0.02572350659883809	-0.2748081871071772	0.03703182990065721	-0.01888547649356759	-0.1824564195932319	0.1414669965465721	0.034947589708125	0.2446702655992622	4.508231670816202	-18.8440155648463	5.887965597020462	-2.778280918246196	-636.0651258472859	-50.70010473173001	-31.75503973134767	0.7937597132349955	0.620850651968252	0.1073606033252975	-2.298274872737399	0.3424219941247762	-0.5003372422651027	1.701539115796105	-1.546791345157172	-1.546791345140344	-0.001139805476864018	0.009403957820580233	-0.04527948499061427	0.3379983864316992	4.412266156273727e-09	-4.48762060785963e-07	5.045498441823825e-08	-8.083913140801315e-08	-4.600405737726866e-08	-1.56158036848863e-08	-6.337660386129888e-08
0.58	-0.4673895789847809	-0.0801299644751654	0.7670513470055323	1.262268498351752	-0.310092160331492	-0.06475223110576282	-0.358915804740728	0.6394505949414644	0.6394505949415558	-0.1744477257005316	0.1744903089927496	0.006121225978647995	-0.05501166174260566	-0.6246149071301172	-0.2155247137265434	-0.3647088587411876	1.82025853754837	-0.03538654155951419	0.439768131747888	-0.5000940972246753	1.270011763293068	1.270011763293172	-0.0009081207678247762	0.0001167211071232433	0.138410642684821	-0.02233814222960932	-0.2814965590943114	0.03767157266982107	-0.01894443297868404	-0.1832469906404271	0.1413575908602624	0.03555774888669765	0.2497441706192917	4.291023712817803	-18.97880867978045	5.804177837049918	-2.715423846418322	-639.4788219508322	-50.43417190304134	-31.07393826643543	0.8298853191331619	0.62554066088635	0.151496527387636	-2.422627144368819	0.3490047229121916	-0.5158079820514397	1.72677640618324	-1.648481664488315	-1.648481664488342	0.01721889137849882	-0.01873437899361016	-0.05995226624933075	0.3441412101059863	2.704765718011578e-09	-4.104246608307334e-07	4.830639044993441e-08	-7.5195773230813e-08	-4.027598682962087e-08	-1.057815725074144e-08	-5.926669506730172e-08
0.59	-0.4735933370142693	-0.08225385358314802	0.7634125391278479	1.280347586315336	-0.3104291631569742	-0.06038148309497317	-0.3638304435795585	0.6520668593895187	0.6520668593896357	-0.174456460106657	0.1744914196793893	0.007501958618405035	-0.05521845800291487	-0.6160676642312435	-0.2092475430611765	-0.3629800786534696	1.795346151769755	-0.03202989469714276	0.4343251805876028	-0.482814734411085	1.25308494777201	1.253084947771983	-0.0008374263722635977	0.0001069699165305964	0.1377076325026409	-0.01903863063275395	-0.2879542589557669	0.03818881822431443	-0.0190218309876404	-0.1840300355470979	0.1412673003828507	0.03608471241647456	0.2546006637461055	4.088579808906887	-19.08242841325836	5.718131276646651	-2.645239860851115	-642.7101577052003	-50.13034933111099	-30.38670777127523	0.877494471873336	0.6296256144488591	0.1944570872161664	-2.557484552188704	0.3266591798091336	-0.5670408434815134	1.731356637517445	-1.738196906570396	-1.738196906590041	0.002126730381354988	0.008106410120156698	-0.0797168646216215	0.3202833631845715	1.444099021721983e-09	-3.732678585939989e-07	4.532853609551542e-08	-6.977737828299384e-08	-3.454308604713648e-08	-6.078448143775795e-09	-5.502565996889681e-08
